HIERARCHY
ROOT hips
{
  OFFSET 0 10.6860622 2.3727825e-15
  CHANNELS 6 Xposition Yposition Zposition Yrotation Xrotation Zrotation
  JOINT leftUpperLeg
  {
    OFFSET 0.6642549969 -0.9402397400000004 0
    CHANNELS 3 Yrotation Xrotation Zrotation
    JOINT leftLowerLeg
    {
      OFFSET 0 -3.997221335632195 0
      CHANNELS 3 Yrotation Xrotation Zrotation
      JOINT leftFoot
      {
        OFFSET -0.13777839790000004 -4.6145792000000005 -0.22186036399999998
        CHANNELS 3 Yrotation Xrotation Zrotation
        JOINT leftToes
        {
          OFFSET -0.03777410834999995 -0.9130806927000008 0.85230013
          CHANNELS 3 Yrotation Xrotation Zrotation
          End Site
          {
            OFFSET -0.03777410834999995 -0.9130806927000008 0.85230013
          }
        }
      }
    }
  }
  JOINT rightUpperLeg
  {
    OFFSET -0.6642778626 -0.9402397400000004 0
    CHANNELS 3 Yrotation Xrotation Zrotation
    JOINT rightLowerLeg
    {
      OFFSET 0 -3.997221452859387 0
      CHANNELS 3 Yrotation Xrotation Zrotation
      JOINT rightFoot
      {
        OFFSET 0.1377926176 -4.6145792000000005 -0.22185782299999995
        CHANNELS 3 Yrotation Xrotation Zrotation
        JOINT rightToes
        {
          OFFSET 0.037780746850000047 -0.9130806927000008 0.85230167
          CHANNELS 3 Yrotation Xrotation Zrotation
          End Site
          {
            OFFSET 0.037780746850000047 -0.9130806927000008 0.85230167
          }
        }
      }
    }
  }
  JOINT spine
  {
    OFFSET 0 0.13988381660000015 0
    CHANNELS 3 Yrotation Xrotation Zrotation
    JOINT chest
    {
      OFFSET 0 0.6191039003973773 0
      CHANNELS 3 Yrotation Xrotation Zrotation
      JOINT upperChest
      {
        OFFSET 0 0.9855186130586943 0
        CHANNELS 3 Yrotation Xrotation Zrotation
        JOINT leftShoulder
        {
          OFFSET 0.1807663869 1.5087829790000005 0
          CHANNELS 3 Yrotation Xrotation Zrotation
          JOINT leftUpperArm
          {
            OFFSET 0.5985063006419806 0 0
            CHANNELS 3 Yrotation Xrotation Zrotation
            JOINT leftLowerArm
            {
              OFFSET 2.2993332369501065 0 0
              CHANNELS 3 Yrotation Xrotation Zrotation
              JOINT leftHand
              {
                OFFSET 2.395047042602395 0 0
                CHANNELS 3 Yrotation Xrotation Zrotation
                JOINT leftIndexProximal
                {
                  OFFSET 0.5766295810000004 0.04556643899499946 0.17265095988184
                  CHANNELS 3 Yrotation Xrotation Zrotation
                  JOINT leftIndexIntermediate
                  {
                    OFFSET 0.2957229000000008 -0.019352197700001517 -0.007932640616999987
                    CHANNELS 3 Yrotation Xrotation Zrotation
                    JOINT leftIndexDistal
                    {
                      OFFSET 0.19008243099999922 -0.012484908149998475 -0.002786250786000012
                      CHANNELS 3 Yrotation Xrotation Zrotation
                      End Site
                      {
                        OFFSET 0.19008243099999922 -0.012484908149998475 -0.002786250786000012
                      }
                    }
                  }
                }
                JOINT leftMiddleProximal
                {
                  OFFSET 0.5834975091000001 0.0524350405149987 0.02204081888183999
                  CHANNELS 3 Yrotation Xrotation Zrotation
                  JOINT leftMiddleIntermediate
                  {
                    OFFSET 0.33880573540000003 -0.019871473270000717 -0.00000971183179999946
                    CHANNELS 3 Yrotation Xrotation Zrotation
                    JOINT leftMiddleDistal
                    {
                      OFFSET 0.20676022730000088 -0.012221336379999448 0.0001471936708000235
                      CHANNELS 3 Yrotation Xrotation Zrotation
                      End Site
                      {
                        OFFSET 0.20676022730000088 -0.012221336379999448 0.0001471936708000235
                      }
                    }
                  }
                }
                JOINT leftLittleProximal
                {
                  OFFSET 0.5344154683999995 -0.012880921405001189 -0.24414037221816004
                  CHANNELS 3 Yrotation Xrotation Zrotation
                  JOINT leftLittleIntermediate
                  {
                    OFFSET 0.21758961730000093 -0.011650919939999227 0.011893592810000034
                    CHANNELS 3 Yrotation Xrotation Zrotation
                    JOINT leftLittleDistal
                    {
                      OFFSET 0.1475273964999999 -0.008152365682999818 0.006001092492999946
                      CHANNELS 3 Yrotation Xrotation Zrotation
                      End Site
                      {
                        OFFSET 0.1475273964999999 -0.008152365682999818 0.006001092492999946
                      }
                    }
                  }
                }
                JOINT leftRingProximal
                {
                  OFFSET 0.5799399463000003 0.026911854694997794 -0.12150566991816003
                  CHANNELS 3 Yrotation Xrotation Zrotation
                  JOINT leftRingIntermediate
                  {
                    OFFSET 0.26167887460000006 -0.013480186499999602 0.010996293000000053
                    CHANNELS 3 Yrotation Xrotation Zrotation
                    JOINT leftRingDistal
                    {
                      OFFSET 0.17667108799999987 -0.008990287899999228 0.0055541023999999065
                      CHANNELS 3 Yrotation Xrotation Zrotation
                      End Site
                      {
                        OFFSET 0.17667108799999987 -0.008990287899999228 0.0055541023999999065
                      }
                    }
                  }
                }
                JOINT leftThumbProximal
                {
                  OFFSET 0.11018806699999972 -0.09448718900500053 0.17047963138184
                  CHANNELS 3 Yrotation Xrotation Zrotation
                  JOINT leftThumbIntermediate
                  {
                    OFFSET 0.31062601459999983 -0.08126270900000132 0.15443142000000007
                    CHANNELS 3 Yrotation Xrotation Zrotation
                    JOINT leftThumbDistal
                    {
                      OFFSET 0.21627175790000086 -0.08833193599999878 0.018771167799999988
                      CHANNELS 3 Yrotation Xrotation Zrotation
                      End Site
                      {
                        OFFSET 0.21627175790000086 -0.08833193599999878 0.018771167799999988
                      }
                    }
                  }
                }
              }
            }
          }
        }
        JOINT neck
        {
          OFFSET 0 1.5463305265074576 0
          CHANNELS 3 Yrotation Xrotation Zrotation
          JOINT head
          {
            OFFSET 0 0.8456443600000344 0
            CHANNELS 3 Yrotation Xrotation Zrotation
            JOINT leftEye
            {
              OFFSET 0.30408573140000006 0.5104519199999995 0.1276382305
              CHANNELS 3 Yrotation Xrotation Zrotation
              End Site
              {
                OFFSET 0.30408573140000006 0.5104519199999995 0.1276382305
              }
            }
            JOINT rightEye
            {
              OFFSET -0.30409491089999996 0.5104519199999995 0.1276379445
              CHANNELS 3 Yrotation Xrotation Zrotation
              End Site
              {
                OFFSET -0.30409491089999996 0.5104519199999995 0.1276379445
              }
            }
            JOINT jaw
            {
              OFFSET -3.155239131000001e-7 -0.11984121820000082 0.60178107
              CHANNELS 3 Yrotation Xrotation Zrotation
              End Site
              {
                OFFSET -3.155239131000001e-7 -0.11984121820000082 0.60178107
              }
            }
          }
        }
        JOINT rightShoulder
        {
          OFFSET -0.1807303465 1.5087829790000005 0
          CHANNELS 3 Yrotation Xrotation Zrotation
          JOINT rightUpperArm
          {
            OFFSET -0.5985063796536958 0 0
            CHANNELS 3 Yrotation Xrotation Zrotation
            JOINT rightLowerArm
            {
              OFFSET -2.2993322059002854 0 0
              CHANNELS 3 Yrotation Xrotation Zrotation
              JOINT rightHand
              {
                OFFSET -2.395045314457259 0 0
                CHANNELS 3 Yrotation Xrotation Zrotation
                JOINT rightIndexProximal
                {
                  OFFSET -0.5764487688300002 0.0441371204405987 0.17361932004999997
                  CHANNELS 3 Yrotation Xrotation Zrotation
                  JOINT rightIndexIntermediate
                  {
                    OFFSET -0.29573011380000047 -0.01934826376999843 -0.007698921482999974
                    CHANNELS 3 Yrotation Xrotation Zrotation
                    JOINT rightIndexDistal
                    {
                      OFFSET -0.19008373999999884 -0.012503266380000655 -0.0026365778999999897
                      CHANNELS 3 Yrotation Xrotation Zrotation
                      End Site
                      {
                        OFFSET -0.19008373999999884 -0.012503266380000655 -0.0026365778999999897
                      }
                    }
                  }
                }
                JOINT rightMiddleProximal
                {
                  OFFSET -0.5834852037300005 0.05211639405060153 0.02307162440000001
                  CHANNELS 3 Yrotation Xrotation Zrotation
                  JOINT rightMiddleIntermediate
                  {
                    OFFSET -0.33880114510000003 -0.019952774050000954 0.0002455003561999819
                    CHANNELS 3 Yrotation Xrotation Zrotation
                    JOINT rightMiddleDistal
                    {
                      OFFSET -0.20675694929999955 -0.012273788999999091 0.00030209124000002766
                      CHANNELS 3 Yrotation Xrotation Zrotation
                      End Site
                      {
                        OFFSET -0.20675694929999955 -0.012273788999999091 0.00030209124000002766
                      }
                    }
                  }
                }
                JOINT rightLittleProximal
                {
                  OFFSET -0.5346811737299992 -0.011214256288399227 -0.24363941305000003
                  CHANNELS 3 Yrotation Xrotation Zrotation
                  JOINT rightLittleIntermediate
                  {
                    OFFSET -0.21757715980000092 -0.011771559690000988 0.01201554387
                    CHANNELS 3 Yrotation Xrotation Zrotation
                    JOINT rightLittleDistal
                    {
                      OFFSET -0.1475201849000004 -0.00822055339600003 0.006082065407000015
                      CHANNELS 3 Yrotation Xrotation Zrotation
                      End Site
                      {
                        OFFSET -0.1475201849000004 -0.00822055339600003 0.006082065407000015
                      }
                    }
                  }
                }
                JOINT rightRingProximal
                {
                  OFFSET -0.5800810755299999 0.027657985680600072 -0.12066365025000003
                  CHANNELS 3 Yrotation Xrotation Zrotation
                  JOINT rightRingIntermediate
                  {
                    OFFSET -0.26166445029999974 -0.013623118409999302 0.011164098990000045
                    CHANNELS 3 Yrotation Xrotation Zrotation
                    JOINT rightRingDistal
                    {
                      OFFSET -0.17666387530000027 -0.009072900100000503 0.005668185599999959
                      CHANNELS 3 Yrotation Xrotation Zrotation
                      End Site
                      {
                        OFFSET -0.17666387530000027 -0.009072900100000503 0.005668185599999959
                      }
                    }
                  }
                }
                JOINT rightThumbProximal
                {
                  OFFSET -0.10997596379000074 -0.09577489355940072 0.16989765924999997
                  CHANNELS 3 Yrotation Xrotation Zrotation
                  JOINT rightThumbIntermediate
                  {
                    OFFSET -0.31036620999999986 -0.08229339117999834 0.15440884469999996
                    CHANNELS 3 Yrotation Xrotation Zrotation
                    JOINT rightThumbDistal
                    {
                      OFFSET -0.21631306399999906 -0.08825326400000111 0.018656797720000014
                      CHANNELS 3 Yrotation Xrotation Zrotation
                      End Site
                      {
                        OFFSET -0.21631306399999906 -0.08825326400000111 0.018656797720000014
                      }
                    }
                  }
                }
              }
            }
          }
        }
      }
    }
  }
}
MOTION
Frames: 4
Frame Time: 0.03333333333333333
-0.7984716296195984 -0.00021777861328153847 0.4942193925380707 3.043409886100368 -8.253907319777605 -0.1481307005697884 12.75729404634806 6.373126834651107 6.296090987221086 -7.863841757682131 7.514371401488374 0.7987513232310461 -2.775385241065764 -3.9975841636165255 -2.449578489094868 0.0000017117493227706063 -3.748674492861626 -0.0000016029393003546052 -12.800037065944847 5.9971293261477605 -3.671831007756291 1.5507922993551844 7.608780498234185 3.006243703520809 0.8777968035699354 -5.987444131551017 1.0562532706774128 0.000002895631892970154 -2.2675510984938767 9.717267273268016e-7 -2.931358787103948 3.4909712917466433 -1.8025073459044048 -1.8953590358476498 4.216732367288495 -0.07434308657321237 0 0 0 -1.8481876455669597 2.0331821199850197 -3.618693921149907 -11.940894153487466 14.273956853666323 -75.81342975784362 -29.34855312902805 0.09499870343345944 0.36274679172770513 10.8398383303419 -24.36691122180899 -1.2327708945777498 4.487525152260018 0.5279652463380922 -24.549159956222898 1.8715586260566623 0.353902152264106 -21.416216568943856 1.871561399393773 0.35391797405881986 -21.416225764335262 4.698779653483858 0.6211629112860415 -23.87575066724147 3.5443345626846816 1.4223648988741373 -43.723346859035885 3.005462185832055 0.9734292534092174 -35.88768981306709 5.210685067354249 0.921148854336471 -30.371193320758632 3.8533066013753765 1.7446053306871858 -48.706845893843244 3.442468752372716 1.3275981816778575 -42.17055395780096 5.291706684065357 0.9782461958906766 -31.783416856770845 3.7697782865528167 1.6518594938746578 -47.3139992883735 3.384258937961589 1.2756784397791727 -41.2998634748116 22.63619068701151 8.458864898435486 15.253095729136758 12.731211335047721 5.847149830996595 2.500699496783691 -22.856362486056376 -11.452358403033942 11.29013072864959 -0.7214895703346552 -5.250640728076971 3.400481431282622 -14.733726461510178 -0.3754161632231755 -0.24495208257244105 0 0 0 0 0 0 0 0 0 6.11854524569945 1.1601893683358802 14.566291268790645 -2.6268315036596452 2.8382684306554853 68.64563294295974 17.338199084424232 0.03362605374577256 -0.22055396519707376 2.5386722889643196 -3.425448217560441 -21.81563040842545 -5.844588336465975 2.3297456230569296 65.22497401574222 -3.8700273875714863 3.264983972160594 80.299711852324 -3.870036772900291 3.2649833307892924 80.2997301303226 -5.844588336465975 2.3297456230569296 65.22497401574222 -3.8700273875714863 3.264983972160594 80.299711852324 -3.870037199506142 3.2649833307892924 80.2997301303226 -5.844592934705297 2.3297402825573306 65.22496494446959 -3.8700421230423285 3.265000647814587 80.299711852324 -3.8700273875714863 3.2649957306345345 80.29972085803527 -5.844588336465975 2.3297456230569296 65.22496494446959 -3.8700273875714863 3.264984185951028 80.299711852324 -3.870036772900291 3.2649833307892924 80.2997301303226 -5.63759322898501 13.564537045843181 1.1776504097129041 -14.560080216035331 6.178740420619881 -3.5228127494142845 -5.724998568760233 -5.49810351795277 -14.097920328350298
-0.7916995882987976 0.0003439355590817428 0.4957248866558075 3.2699140221517804 -8.25901890926581 -0.11960664791574242 12.837236320475233 6.330948892943348 6.220383986467392 -8.195524896156115 7.566672507330844 0.800560451867263 -2.7895499967245376 -3.979184750579977 -2.395384705038746 -8.555272025822363e-7 -3.794532666434878 6.953738517806902e-7 -12.707156425177102 6.005626547738334 -3.7447158187517005 1.2748380932157473 7.658801600309107 2.9838675295783275 0.8496606293540595 -5.998817943088802 1.2000393087194867 3.870935775886132e-7 -2.3400036921202925 1.2359966593205232e-7 -2.924888476575095 3.4869111164110738 -1.710999851653049 -1.8931502057695204 4.212584189198515 -0.054400480168302776 0 0 0 -1.8269086966844652 2.033429656755305 -3.6096793049621474 -11.882858583600724 14.283217812024976 -75.91148547518841 -28.952934028284332 0.09248147520033344 0.3582794436047259 10.664587833980388 -24.32236532203996 -1.2651092169383764 4.483960786585117 0.5263407131354279 -24.505375998790807 1.867905743391535 0.3524733882825869 -21.372396278173717 1.8679068100616782 0.3524805120912501 -21.372401048629392 4.69725702238517 0.6203943098095273 -23.856659195263237 3.543051970746862 1.4211436265805857 -43.703619344313964 3.0055865810130675 0.9735133622529142 -35.88949485962963 5.216059628522385 0.9247247088398697 -30.44325282920676 3.8575654328856017 1.7494671634911665 -48.77886222218319 3.4460984915984496 1.3308772347016005 -42.225079816542795 5.291133356091025 0.9778464648652678 -31.773765227135804 3.769155913976649 1.6511639130228637 -47.303751751139266 3.3850040377415787 1.2763334465927683 -41.310863483988385 22.332100862277176 8.407700827388883 15.329888304197992 12.73120966077019 5.847133524458068 2.500720503611463 -22.85635175197941 -11.452350562976799 11.290112279091923 -0.7207975478194605 -5.242550625346767 3.4126951139565125 -14.723413665214185 -0.3577593091779966 -0.20701858721098737 0 0 0 0 0 0 0 0 0 6.116163064118162 1.1526627811281474 14.603546114532021 -2.558504690959132 2.6034691704779815 68.46768699753761 16.901077062246763 0.031952283599007154 -0.21516246487537968 2.827383681429033 -3.239913080069477 -21.754941442472038 -5.844588336465975 2.3297456230569296 65.22497401574222 -3.8700273875714863 3.264983972160594 80.299711852324 -3.870036772900291 3.2649833307892924 80.2997301303226 -5.844588336465975 2.3297456230569296 65.22497401574222 -3.8700273875714863 3.264983972160594 80.299711852324 -3.870037199506142 3.2649833307892924 80.2997301303226 -5.844592934705297 2.3297402825573306 65.22496494446959 -3.8700421230423285 3.265000647814587 80.299711852324 -3.8700273875714863 3.2649957306345345 80.29972085803527 -5.844588336465975 2.3297456230569296 65.22496494446959 -3.8700273875714863 3.264984185951028 80.299711852324 -3.870036772900291 3.2649833307892924 80.2997301303226 -5.63759322898501 13.564537045843181 1.1776504097129041 -14.560080216035331 6.178740420619881 -3.5228127494142845 -5.724998568760233 -5.49810351795277 -14.097920328350298
-0.784482479095459 0.0006338525512692428 0.49570590257644653 3.4740238038908977 -8.235354315188998 -0.09130108511186784 12.897915509272055 6.249834409494902 6.12958696787001 -8.483803436427092 7.635585926361224 0.803685374677847 -2.802238240087281 -3.9768371936118228 -2.3309422699265934 0.0000035243166737139434 -3.8398627436786326 8.909933058553153e-7 -12.60730879676923 5.971713996921179 -3.8099033011898946 1.0109048144213375 7.712200734638472 2.9558579552893254 0.8205105462709731 -6.015963238565396 1.3462065895645934 -0.0000041702431881945125 -2.4114113070256304 -0.0000017020290033183421 -2.9189696423254574 3.4838927797001324 -1.6207835115638334 -1.8912157571986379 4.209393133397833 -0.039253807704927236 0 0 0 -1.7965961778655213 2.033515728652403 -3.5982689573106112 -11.850564659952514 14.254113854062087 -76.01431677548314 -28.59549819245805 0.09028005040400011 0.354255751243234 10.470386334847323 -24.280371421447096 -1.3283995694871076 4.478098830432675 0.5236761338057131 -24.43347804352178 1.8619166415371957 0.3501372595910762 -21.30051079356648 1.8619098148266142 0.3501416085817939 -21.30050602077337 4.6945886992074985 0.6190207211125883 -23.823201677715364 3.5408334876147016 1.4190370401462007 -43.66946980693667 3.004189676839502 0.972500854154555 -35.87023928714878 5.2207671535859 0.9279005215096627 -30.506500434849286 3.86129500609105 1.7537081312623894 -48.842062422984654 3.4497177978132227 1.3341649388874328 -42.279586474293865 5.289526662201173 0.9767124885117184 -31.750099931672505 3.7676812100369923 1.64958132068851 -47.27944407945584 3.384435998125824 1.2758433656968073 -41.30258624262611 22.01307165336266 8.360246382520305 15.400736383233381 12.731214683602719 5.847141677727271 2.5007166452145753 -22.856364091493617 -11.4523523052117 11.290139271248862 -0.7197592791145131 -5.240503252684574 3.425013958646069 -14.729845962449222 -0.3589484523627611 -0.15678532848322985 0 0 0 0 0 0 0 0 0 6.093416169597514 1.1501307242948018 14.624148550346707 -2.4763814313884644 2.336225586584169 68.3061611758164 16.444701985031415 0.030279550681232333 -0.20953070892940495 3.0161541741958247 -3.0682337755260676 -21.703572889285095 -5.844588336465975 2.3297456230569296 65.22497401574222 -3.8700273875714863 3.264983972160594 80.299711852324 -3.870036772900291 3.2649833307892924 80.2997301303226 -5.844588336465975 2.3297456230569296 65.22497401574222 -3.8700273875714863 3.264983972160594 80.299711852324 -3.870037199506142 3.2649833307892924 80.2997301303226 -5.844592934705297 2.3297402825573306 65.22496494446959 -3.8700421230423285 3.265000647814587 80.299711852324 -3.8700273875714863 3.2649957306345345 80.29972085803527 -5.844588336465975 2.3297456230569296 65.22496494446959 -3.8700273875714863 3.264984185951028 80.299711852324 -3.870036772900291 3.2649833307892924 80.2997301303226 -5.63759322898501 13.564537045843181 1.1776504097129041 -14.560080216035331 6.178740420619881 -3.5228127494142845 -5.724998568760233 -5.49810351795277 -14.097920328350298
-0.7773714661598206 0.000623362133788774 0.49411553144454956 3.6572263670963228 -8.180714005832593 -0.06633502356463584 12.951890501625915 6.122924669308404 6.0367348138238235 -8.749947349553848 7.721794390029911 0.7959454017968857 -2.813585318923483 -3.9918679216321498 -2.254740131589631 -0.000004261947830725773 -3.884629584008466 2.7943005648169906e-7 -12.495704210921135 5.889414975880518 -3.8583727672915056 0.7519522215916683 7.776650855517348 2.926087250512588 0.7907152976359066 -6.043204608457376 1.4901159933554535 0.0000024916098062990985 -2.476888721962379 0.000001277689905853119 -2.913048633310142 3.4833973157893614 -1.529996592260297 -1.8894157573607377 4.207717780834322 -0.02673374568023989 0 0 0 -1.7712488587441133 2.0322250778333704 -3.5957514980713774 -11.851151878110466 14.190032656242344 -76.09902589471592 -28.286094720762158 0.08838973322241025 0.35074071264765394 10.31452745217986 -24.27653881623817 -1.455702830809225 4.4696641871871385 0.5198653705652513 -24.330056773994148 1.8532864512781388 0.34677375610838296 -21.197050989343825 1.8532875179564863 0.34678629613849593 -21.197057000328407 4.690600677295853 0.6169949185715592 -23.773315824869105 3.5375450887581352 1.4158971805225147 -43.61877869619148 3.001014909363389 0.9702076087565791 -35.826461655101035 5.224593842204038 0.9304750943286105 -30.55789330276005 3.864324338195189 1.7571948716815855 -48.89341967051806 3.4530731096441984 1.3372278303169562 -42.33052652723814 5.286726346263191 0.9747648551307566 -31.710352127626038 3.7652173192754854 1.6469099315990303 -47.23890556218236 3.3823494267167877 1.2740029211528205 -41.27149988286522 21.679676389712757 8.317951484425274 15.464768035251108 12.731227997230535 5.8471318079803565 2.5007481554551565 -22.856357921736386 -11.452346207389592 11.290126629430116 -0.7184682294304503 -5.239825083403778 3.436698989617237 -14.754958848707034 -0.35171698391057427 -0.08817381555057338 0 0 0 0 0 0 0 0 0 6.061982805319637 1.147536331728632 14.646278727721757 -2.3641152841432653 2.0505322117758316 68.15053235472388 15.951904420349683 0.028495106829869405 -0.20337798203000446 3.1413669518326026 -2.909462377380186 -21.66576341171323 -5.844588336465975 2.3297456230569296 65.22497401574222 -3.8700273875714863 3.264983972160594 80.299711852324 -3.870036772900291 3.2649833307892924 80.2997301303226 -5.844588336465975 2.3297456230569296 65.22497401574222 -3.8700273875714863 3.264983972160594 80.299711852324 -3.870037199506142 3.2649833307892924 80.2997301303226 -5.844592934705297 2.3297402825573306 65.22496494446959 -3.8700421230423285 3.265000647814587 80.299711852324 -3.8700273875714863 3.2649957306345345 80.29972085803527 -5.844588336465975 2.3297456230569296 65.22496494446959 -3.8700273875714863 3.264984185951028 80.299711852324 -3.870036772900291 3.2649833307892924 80.2997301303226 -5.63759322898501 13.564537045843181 1.1776504097129041 -14.560080216035331 6.178740420619881 -3.5228127494142845 -5.724998568760233 -5.49810351795277 -14.097920328350298
